<svg xmlns="http://www.w3.org/2000/svg" viewBox="0 0 120 120">
  <!-- Фон-море и небо -->
  <circle cx="60" cy="60" r="56" fill="#fff7ed" />
  <path d="M12 72 Q60 88 108 72 Q102 96 60 100 Q18 96 12 72 Z" fill="#bfdbfe" />

  <!-- Корпус корабля -->
  <path
    d="M36 72 L84 72 L78 86 Q70 92 60 94 Q50 92 42 86 Z"
    fill="#8b5a2b"
    stroke="#5d4037"
    stroke-width="2"
    stroke-linejoin="round"
  />

  <!-- Иллюминаторы -->
  <circle cx="48" cy="80" r="3" fill="#e5e7eb" stroke="#374151" stroke-width="1" />
  <circle cx="60" cy="82" r="3" fill="#e5e7eb" stroke="#374151" stroke-width="1" />
  <circle cx="72" cy="80" r="3" fill="#e5e7eb" stroke="#374151" stroke-width="1" />

  <!-- Мачта -->
  <rect x="58" y="34" width="4" height="32" fill="#4b5563" />

  <!-- Парус -->
  <path
    d="M62 36 L84 42 L62 56 Z"
    fill="#fee2e2"
    stroke="#b91c1c"
    stroke-width="2"
    stroke-linejoin="round"
  />

  <!-- Пиратский флажок -->
  <path
    d="M58 26 L72 26 Q76 28 72 30 Q76 32 72 34 L58 34 Z"
    fill="#111827"
  />
  <circle cx="66" cy="30" r="3" fill="#f9fafb" />
  <path d="M64 30 L68 30" stroke="#111827" stroke-width="1.2" />
  <circle cx="65" cy="29" r="0.8" fill="#111827" />
  <circle cx="67" cy="29" r="0.8" fill="#111827" />

  <!-- Пенные волны -->
  <path
    d="M28 74 Q32 70 36 74 T44 74 T52 74 T60 74 T68 74 T76 74 T84 74"
    fill="none"
    stroke="#e0f2fe"
    stroke-width="3"
    stroke-linecap="round"
  />
</svg>