<svg xmlns="http://www.w3.org/2000/svg" viewBox="0 0 120 120">
  <!-- Тёплый фон -->
  <circle cx="60" cy="60" r="56" fill="#f5f5f4" />

  <!-- Тело динозавра -->
  <path
    d="M40 76 Q36 64 42 54 Q48 44 60 42 Q74 44 80 54 Q86 64 82 76 Z"
    fill="#22c55e"
    stroke="#15803d"
    stroke-width="2"
    stroke-linejoin="round"
  />

  <!-- Шея и голова -->
  <path
    d="M56 42 Q52 34 52 28 Q54 24 60 24 Q66 24 68 28 Q68 34 64 40 Z"
    fill="#22c55e"
    stroke="#15803d"
    stroke-width="2"
    stroke-linejoin="round"
  />

  <!-- Ноздри и глаз -->
  <circle cx="62" cy="28" r="1.3" fill="#14532d" />
  <circle cx="58" cy="28" r="1.3" fill="#14532d" />
  <circle cx="60" cy="32" r="2.2" fill="#f9fafb" />
  <circle cx="61" cy="32" r="1.2" fill="#111827" />

  <!-- Спинки-шипы -->
  <path d="M52 38 L50 32 L46 38 Z" fill="#4ade80" />
  <path d="M60 36 L58 30 L54 36 Z" fill="#4ade80" />
  <path d="M68 38 L66 32 L62 38 Z" fill="#4ade80" />
  <path d="M74 44 L72 38 L68 44 Z" fill="#4ade80" />

  <!-- Ноги -->
  <rect x="50" y="76" width="6" height="8" rx="2" fill="#16a34a" />
  <rect x="64" y="76" width="6" height="8" rx="2" fill="#16a34a" />

  <!-- Щёчка -->
  <circle cx="56" cy="34" r="1.8" fill="#fca5a5" />

  <!-- Растения вокруг -->
  <path
    d="M30 80 Q32 72 38 68 Q38 76 36 84 Z"
    fill="#16a34a"
  />
  <path
    d="M90 78 Q86 70 80 68 Q80 76 82 84 Z"
    fill="#16a34a"
  />
</svg>