<svg xmlns="http://www.w3.org/2000/svg" viewBox="0 0 120 120">
  <!-- Голубой фон -->
  <circle cx="60" cy="60" r="56" fill="#e0f2fe" />

  <!-- Уши -->
  <circle cx="40" cy="40" r="14" fill="#9ca3af" />
  <circle cx="80" cy="40" r="14" fill="#9ca3af" />
  <circle cx="40" cy="40" r="9" fill="#f9a8d4" />
  <circle cx="80" cy="40" r="9" fill="#f9a8d4" />

  <!-- Голова -->
  <ellipse cx="60" cy="54" rx="24" ry="20" fill="#e5e7eb" />

  <!-- Морда -->
  <ellipse cx="60" cy="60" rx="18" ry="12" fill="#fef3c7" />

  <!-- Нос -->
  <circle cx="66" cy="60" r="3" fill="#fb7185" />

  <!-- Глаза -->
  <circle cx="52" cy="54" r="3" fill="#111827" />
  <circle cx="68" cy="54" r="3" fill="#111827" />
  <circle cx="51" cy="53" r="1.2" fill="#f9fafb" />
  <circle cx="67" cy="53" r="1.2" fill="#f9fafb" />

  <!-- Улыбка -->
  <path
    d="M52 64 Q60 70 68 64"
    fill="none"
    stroke="#9f1239"
    stroke-width="2"
    stroke-linecap="round"
  />

  <!-- Щёчки -->
  <circle cx="50" cy="62" r="2.2" fill="#fecaca" />
  <circle cx="70" cy="62" r="2.2" fill="#fecaca" />

  <!-- Усы -->
  <path d="M48 60 L40 58" stroke="#6b7280" stroke-width="1.3" stroke-linecap="round" />
  <path d="M48 63 L40 63" stroke="#6b7280" stroke-width="1.3" stroke-linecap="round" />
  <path d="M72 60 L80 58" stroke="#6b7280" stroke-width="1.3" stroke-linecap="round" />
  <path d="M72 63 L80 63" stroke="#6b7280" stroke-width="1.3" stroke-linecap="round" />

  <!-- Тело и одежда -->
  <path
    d="M44 68 Q40 80 44 88 Q52 96 60 98 Q68 96 76 88 Q80 80 76 68 Z"
    fill="#3b82f6"
  />
  <!-- Шортики (другой цвет, без пуговиц) -->
  <path
    d="M46 80 Q52 86 60 88 Q68 86 74 80 Q74 90 60 94 Q46 90 46 80 Z"
    fill="#f97316"
  />

  <!-- Ножки -->
  <rect x="50" y="88" width="6" height="8" rx="2" fill="#6b7280" />
  <rect x="64" y="88" width="6" height="8" rx="2" fill="#6b7280" />

  <!-- Обувь -->
  <path
    d="M48 96 Q52 100 58 100 Q58 104 52 104 Q46 104 44 100 Z"
    fill="#facc15"
  />
  <path
    d="M62 96 Q66 100 72 100 Q72 104 66 104 Q60 104 58 100 Z"
    fill="#facc15"
  />

  <!-- Хвост -->
  <path
    d="M78 84 Q88 86 92 80 Q88 78 84 80"
    fill="none"
    stroke="#9ca3af"
    stroke-width="2"
    stroke-linecap="round"
  />

  <!-- Звёздочки вокруг -->
  <circle cx="26" cy="32" r="2" fill="#fbbf24" />
  <circle cx="96" cy="36" r="2" fill="#fbbf24" />
  <circle cx="30" cy="88" r="1.8" fill="#fbbf24" />
  <circle cx="92" cy="80" r="1.8" fill="#fbbf24" />
</svg>