<svg xmlns="http://www.w3.org/2000/svg" viewBox="0 0 120 120">
  <!-- Мягкий зелёный фон -->
  <circle cx="60" cy="60" r="56" fill="#ecfdf3" />

  <!-- Грива -->
  <circle cx="60" cy="60" r="30" fill="#f97316" />
  <circle cx="40" cy="52" r="10" fill="#fb923c" />
  <circle cx="80" cy="52" r="10" fill="#fb923c" />
  <circle cx="44" cy="76" r="9" fill="#fb923c" />
  <circle cx="76" cy="76" r="9" fill="#fb923c" />

  <!-- Морда -->
  <circle cx="60" cy="60" r="22" fill="#fed7aa" />

  <!-- Уши -->
  <circle cx="44" cy="42" r="7" fill="#f97316" />
  <circle cx="76" cy="42" r="7" fill="#f97316" />
  <circle cx="44" cy="42" r="4" fill="#fed7aa" />
  <circle cx="76" cy="42" r="4" fill="#fed7aa" />

  <!-- Глаза -->
  <circle cx="52" cy="56" r="3" fill="#1f2933" />
  <circle cx="68" cy="56" r="3" fill="#1f2933" />

  <!-- Нос и рот -->
  <path
    d="M60 60 C58 62 56 64 56 66 Q60 66 64 66 Q64 64 62 62 Z"
    fill="#f97316"
  />
  <path
    d="M56 66 Q60 70 64 66"
    fill="none"
    stroke="#b45309"
    stroke-width="2"
    stroke-linecap="round"
  />

  <!-- Щёчки -->
  <circle cx="50" cy="64" r="2.2" fill="#fed7aa" stroke="#fb7185" stroke-width="0.8" />
  <circle cx="70" cy="64" r="2.2" fill="#fed7aa" stroke="#fb7185" stroke-width="0.8" />

  <!-- Маленькие листочки вокруг -->
  <path
    d="M22 32 C26 30 30 30 32 34 C28 36 24 36 22 32 Z"
    fill="#4ade80"
  />
  <path
    d="M96 82 C92 80 88 80 86 84 C90 86 94 86 96 82 Z"
    fill="#4ade80"
  />
</svg>