<svg xmlns="http://www.w3.org/2000/svg" viewBox="0 0 120 120">
  <!-- Лавандовый фон -->
  <circle cx="60" cy="60" r="56" fill="#f5f3ff" />

  <!-- Центральная башня -->
  <rect x="50" y="50" width="20" height="26" rx="2" fill="#e5e7eb" />
  <path
    d="M50 50 L60 40 L70 50 Z"
    fill="#a855f7"
  />

  <!-- Боковые башенки -->
  <rect x="36" y="56" width="10" height="18" rx="2" fill="#e5e7eb" />
  <rect x="74" y="56" width="10" height="18" rx="2" fill="#e5e7eb" />
  <path d="M36 56 L41 50 L46 56 Z" fill="#6366f1" />
  <path d="M74 56 L79 50 L84 56 Z" fill="#6366f1" />

  <!-- Дверь -->
  <rect x="56" y="62" width="8" height="14" rx="4" fill="#f97316" />
  <circle cx="62" cy="69" r="1.3" fill="#fee2e2" />

  <!-- Окна -->
  <rect x="40" y="60" width="4" height="6" rx="1" fill="#bfdbfe" />
  <rect x="76" y="60" width="4" height="6" rx="1" fill="#bfdbfe" />
  <rect x="56" y="54" width="8" height="6" rx="1" fill="#bfdbfe" />

  <!-- Флажок -->
  <path
    d="M60 40 L60 30"
    stroke="#4b5563"
    stroke-width="1.8"
    stroke-linecap="round"
  />
  <path
    d="M60 30 L70 32 L60 34 Z"
    fill="#f97373"
  />

  <!-- Звёздочки/искры -->
  <circle cx="26" cy="34" r="2" fill="#fbbf24" />
  <circle cx="96" cy="38" r="2.2" fill="#fbbf24" />
  <circle cx="32" cy="86" r="1.6" fill="#fbbf24" />
  <circle cx="92" cy="78" r="1.8" fill="#fbbf24" />
</svg>